<svg xmlns="http://www.w3.org/2000/svg" xmlns:xlink="http://www.w3.org/1999/xlink" id="visual" preserveAspectRatio="none" viewBox="0 0 540 960" width="540" height="960" version="1.1">
    <g stroke-width="1" stroke-linejoin="bevel">
        <path d="M324 525.3L399 640L406 503.3Z" fill="#a8c0f3" stroke="#a8c0f3"/><path d="M324 525.3L305 650L399 640Z" fill="#84a7f6" stroke="#84a7f6"/><path d="M540 453.7L426 424.7L406 503.3Z" fill="#9fbaf4" stroke="#9fbaf4"/><path d="M406 503.3L298 401.7L324 525.3Z" fill="#7ba1f7" stroke="#7ba1f7"/><path d="M399 640L540 550.3L406 503.3Z" fill="#9fbaf4" stroke="#9fbaf4"/><path d="M305 650L299 713.7L399 640Z" fill="#5587f8" stroke="#5587f8"/><path d="M399 640L540 653L540 550.3Z" fill="#7ba1f7" stroke="#7ba1f7"/><path d="M397 751.7L540 653L399 640Z" fill="#9fbaf4" stroke="#9fbaf4"/><path d="M299 713.7L397 751.7L399 640Z" fill="#84a7f6" stroke="#84a7f6"/><path d="M426 424.7L298 401.7L406 503.3Z" fill="#84a7f6" stroke="#84a7f6"/><path d="M324 525.3L188 514.3L305 650Z" fill="#96b4f5" stroke="#96b4f5"/><path d="M305 650L203 673L299 713.7Z" fill="#96b4f5" stroke="#96b4f5"/><path d="M540 550.3L540 453.7L406 503.3Z" fill="#5f8ef8" stroke="#5f8ef8"/><path d="M298 401.7L188 514.3L324 525.3Z" fill="#84a7f6" stroke="#84a7f6"/><path d="M188 514.3L203 673L305 650Z" fill="#4a81f8" stroke="#4a81f8"/><path d="M298 401.7L214 397.7L188 514.3Z" fill="#5587f8" stroke="#5587f8"/><path d="M104 663L187 713.7L203 673Z" fill="#5587f8" stroke="#5587f8"/><path d="M203 673L187 713.7L299 713.7Z" fill="#84a7f6" stroke="#84a7f6"/><path d="M299 713.7L347 864.3L397 751.7Z" fill="#6894f8" stroke="#6894f8"/><path d="M426 424.7L337 327L298 401.7Z" fill="#84a7f6" stroke="#84a7f6"/><path d="M298 401.7L203 351L214 397.7Z" fill="#5587f8" stroke="#5587f8"/><path d="M406 310L337 327L426 424.7Z" fill="#4a81f8" stroke="#4a81f8"/><path d="M214 397.7L134 515.3L188 514.3Z" fill="#84a7f6" stroke="#84a7f6"/><path d="M188 514.3L134 515.3L203 673Z" fill="#9fbaf4" stroke="#9fbaf4"/><path d="M410 884.3L540 777.7L397 751.7Z" fill="#9fbaf4" stroke="#9fbaf4"/><path d="M397 751.7L540 777.7L540 653Z" fill="#7ba1f7" stroke="#7ba1f7"/><path d="M540 324L406 310L426 424.7Z" fill="#5f8ef8" stroke="#5f8ef8"/><path d="M337 327L203 351L298 401.7Z" fill="#8daef6" stroke="#8daef6"/><path d="M214 397.7L85 436.7L134 515.3Z" fill="#5f8ef8" stroke="#5f8ef8"/><path d="M142 336L203 351L249 241.3Z" fill="#96b4f5" stroke="#96b4f5"/><path d="M134 515.3L104 663L203 673Z" fill="#84a7f6" stroke="#84a7f6"/><path d="M540 453.7L540 324L426 424.7Z" fill="#84a7f6" stroke="#84a7f6"/><path d="M192 819.3L299 713.7L187 713.7Z" fill="#5587f8" stroke="#5587f8"/><path d="M192 819.3L347 864.3L299 713.7Z" fill="#4a81f8" stroke="#4a81f8"/><path d="M115 769.7L192 819.3L187 713.7Z" fill="#729bf7" stroke="#729bf7"/><path d="M347 864.3L410 884.3L397 751.7Z" fill="#96b4f5" stroke="#96b4f5"/><path d="M308 960L410 884.3L347 864.3Z" fill="#9fbaf4" stroke="#9fbaf4"/><path d="M142 336L85 436.7L214 397.7Z" fill="#a8c0f3" stroke="#a8c0f3"/><path d="M134 515.3L0 565.3L104 663Z" fill="#5587f8" stroke="#5587f8"/><path d="M104 663L115 769.7L187 713.7Z" fill="#6894f8" stroke="#6894f8"/><path d="M203 351L142 336L214 397.7Z" fill="#84a7f6" stroke="#84a7f6"/><path d="M249 241.3L203 351L337 327Z" fill="#5587f8" stroke="#5587f8"/><path d="M410 884.3L540 870.3L540 777.7Z" fill="#6894f8" stroke="#6894f8"/><path d="M425 217.3L316 230.3L406 310Z" fill="#729bf7" stroke="#729bf7"/><path d="M406 310L316 230.3L337 327Z" fill="#96b4f5" stroke="#96b4f5"/><path d="M115 769.7L137 826.3L192 819.3Z" fill="#a8c0f3" stroke="#a8c0f3"/><path d="M192 819.3L308 960L347 864.3Z" fill="#84a7f6" stroke="#84a7f6"/><path d="M316 230.3L249 241.3L337 327Z" fill="#4a81f8" stroke="#4a81f8"/><path d="M540 324L425 217.3L406 310Z" fill="#7ba1f7" stroke="#7ba1f7"/><path d="M0 419.7L0 565.3L85 436.7Z" fill="#6894f8" stroke="#6894f8"/><path d="M85 436.7L0 565.3L134 515.3Z" fill="#84a7f6" stroke="#84a7f6"/><path d="M104 663L0 771.7L115 769.7Z" fill="#84a7f6" stroke="#84a7f6"/><path d="M115 769.7L0 876.3L137 826.3Z" fill="#7ba1f7" stroke="#7ba1f7"/><path d="M0 565.3L0 661L104 663Z" fill="#6894f8" stroke="#6894f8"/><path d="M206 960L308 960L192 819.3Z" fill="#a8c0f3" stroke="#a8c0f3"/><path d="M410 884.3L455 960L540 870.3Z" fill="#729bf7" stroke="#729bf7"/><path d="M308 960L455 960L410 884.3Z" fill="#96b4f5" stroke="#96b4f5"/><path d="M540 324L540 202.3L425 217.3Z" fill="#a8c0f3" stroke="#a8c0f3"/><path d="M323 113.7L249 241.3L316 230.3Z" fill="#84a7f6" stroke="#84a7f6"/><path d="M0 346L0 419.7L85 436.7Z" fill="#6894f8" stroke="#6894f8"/><path d="M0 346L85 436.7L142 336Z" fill="#a8c0f3" stroke="#a8c0f3"/><path d="M455 960L540 960L540 870.3Z" fill="#6894f8" stroke="#6894f8"/><path d="M137 826.3L206 960L192 819.3Z" fill="#5f8ef8" stroke="#5f8ef8"/><path d="M121 960L206 960L137 826.3Z" fill="#729bf7" stroke="#729bf7"/><path d="M0 661L0 771.7L104 663Z" fill="#5587f8" stroke="#5587f8"/><path d="M214 93.7L127 222.3L249 241.3Z" fill="#729bf7" stroke="#729bf7"/><path d="M249 241.3L127 222.3L142 336Z" fill="#a8c0f3" stroke="#a8c0f3"/><path d="M323 113.7L316 230.3L425 217.3Z" fill="#84a7f6" stroke="#84a7f6"/><path d="M127 222.3L0 346L142 336Z" fill="#5587f8" stroke="#5587f8"/><path d="M442 82.7L323 113.7L425 217.3Z" fill="#6894f8" stroke="#6894f8"/><path d="M0 876.3L121 960L137 826.3Z" fill="#a8c0f3" stroke="#a8c0f3"/><path d="M540 202.3L540 114.7L425 217.3Z" fill="#8daef6" stroke="#8daef6"/><path d="M0 771.7L0 876.3L115 769.7Z" fill="#84a7f6" stroke="#84a7f6"/><path d="M540 114.7L442 82.7L425 217.3Z" fill="#84a7f6" stroke="#84a7f6"/><path d="M292 0L214 93.7L323 113.7Z" fill="#a8c0f3" stroke="#a8c0f3"/><path d="M323 113.7L214 93.7L249 241.3Z" fill="#729bf7" stroke="#729bf7"/><path d="M127 222.3L0 208.3L0 346Z" fill="#a8c0f3" stroke="#a8c0f3"/><path d="M0 119.7L0 208.3L127 222.3Z" fill="#9fbaf4" stroke="#9fbaf4"/><path d="M0 876.3L0 960L121 960Z" fill="#84a7f6" stroke="#84a7f6"/><path d="M201 0L109 71.7L214 93.7Z" fill="#96b4f5" stroke="#96b4f5"/><path d="M214 93.7L109 71.7L127 222.3Z" fill="#729bf7" stroke="#729bf7"/><path d="M540 0L402 0L442 82.7Z" fill="#729bf7" stroke="#729bf7"/><path d="M442 82.7L402 0L323 113.7Z" fill="#5587f8" stroke="#5587f8"/><path d="M402 0L292 0L323 113.7Z" fill="#6894f8" stroke="#6894f8"/><path d="M109 71.7L0 119.7L127 222.3Z" fill="#84a7f6" stroke="#84a7f6"/><path d="M540 114.7L540 0L442 82.7Z" fill="#96b4f5" stroke="#96b4f5"/><path d="M292 0L201 0L214 93.7Z" fill="#5f8ef8" stroke="#5f8ef8"/><path d="M109 71.7L0 0L0 119.7Z" fill="#5f8ef8" stroke="#5f8ef8"/><path d="M201 0L90 0L109 71.7Z" fill="#96b4f5" stroke="#96b4f5"/><path d="M90 0L0 0L109 71.7Z" fill="#5f8ef8" stroke="#5f8ef8"/>
    </g>
</svg>          
